<svg width="111" height="59" viewBox="0 0 111 59" fill="none" xmlns="http://www.w3.org/2000/svg">
<path d="M8.7708 33.7349L9.47628 30.819L9.47628 30.819L8.7708 33.7349ZM1.437 29.778C0.0227757 30.6412 -0.423908 32.4874 0.439305 33.9016L14.5062 56.9478C15.3694 58.362 17.2156 58.8087 18.6298 57.9455C20.0441 57.0822 20.4907 55.236 19.6275 53.8218L7.12365 33.3364L27.6091 20.8325C29.0233 19.9693 29.47 18.123 28.6068 16.7088C27.7436 15.2946 25.8973 14.8479 24.4831 15.7111L1.437 29.778ZM9.47628 30.819L3.70546 29.4228L2.29451 35.2545L8.06533 36.6507L9.47628 30.819ZM105.813 0.0335313C81.9789 27.4948 44.8184 39.3698 9.47628 30.819L8.06533 36.6507C45.5875 45.729 85.04 33.1215 110.344 3.96635L105.813 0.0335313Z" fill="#D9BC85"/>
</svg>
