<svg width="129" height="117" viewBox="0 0 129 117" fill="none" xmlns="http://www.w3.org/2000/svg">
<path d="M47.8532 45.4894L50.9029 54.8754C52.1077 58.5836 55.5633 61.0942 59.4624 61.0942H69.3314C72.2376 61.0942 73.4459 64.8131 71.0948 66.5213L63.1106 72.3222C59.9562 74.614 58.6363 78.6763 59.8411 82.3845L62.8908 91.7705C63.7889 94.5344 60.6254 96.8328 58.2743 95.1246L50.2901 89.3237C47.1357 87.0319 42.8643 87.0319 39.7099 89.3237L31.7257 95.1246C29.3746 96.8328 26.2111 94.5344 27.1092 91.7705L30.1589 82.3845C31.3637 78.6763 30.0438 74.614 26.8894 72.3222L18.9052 66.5213C16.5541 64.8131 17.7624 61.0942 20.6686 61.0942H30.5376C34.4367 61.0942 37.8923 58.5836 39.0971 54.8754L42.1468 45.4894C43.0449 42.7254 46.9551 42.7254 47.8532 45.4894Z" stroke="#E3CB9A" stroke-width="6"/>
<path d="M101.956 13.2783L103.55 18.4469C104.455 21.3819 107.167 23.384 110.239 23.384H115.823C116.779 23.384 117.19 24.5969 116.431 25.1781L111.56 28.9066C109.234 30.6874 108.262 33.7284 109.126 36.528L110.901 42.283C111.188 43.2136 110.11 43.9637 109.337 43.3718L105.255 40.2469C102.744 38.3248 99.2561 38.3248 96.7452 40.2469L92.6628 43.3718C91.8896 43.9637 90.8124 43.2136 91.0994 42.283L92.8742 36.528C93.7376 33.7284 92.7663 30.6874 90.4399 28.9066L85.569 25.1781C84.8098 24.597 85.2207 23.384 86.1768 23.384H91.7613C94.8327 23.384 97.5453 21.3819 98.4504 18.4469L100.044 13.2783C100.334 12.3379 101.666 12.3379 101.956 13.2783Z" fill="#E3CB9A" stroke="#E3CB9A" stroke-width="6"/>
</svg>
